:SAMPLES-PER-SECOND 30
:FRAME-RANGE 1-3549
:FULLY-SPECIFIED
:DEGREES
2330
root  -30.4421 38.6167 -46.1603 11.2598 -66.1179 -11.3899
RightUpLeg  -15.063 -11.8977 -0.145891
RightLeg  23.1203 -5.98453 -0.587905
RightFoot  -7.47674 -0.27348 6.58985
RightToes  -1.11029e-010 1.2921e-014 -6.02303e-014
Spine  9.60176 1.29894 15.4639
Spine1  -2.44416 3.90615 -3.68688
HEad  -6.92192 45.2006 -11.5747
LeftShoulder1  1.14888 0.500556 -32.1922
LeftArm  10.3939 11.8271 -29.0374
LeftForeArm  2.28477 -9.53581 -15.1934
LeftHand  0.242482 0.483255 -5.858
RightShoulder  6.88255 8.62885 49.7007
RightArm  10.8921 0.917741 10.0524
RightForeArm  19.0941 1.53365 16.8274
RightHand  -0.215226 3.9639 -2.93769
LeftUpLeg  -11.914 0.0557223 9.55906
LeftLeg  55.818 -0.794532 -0.770789
LeftFoot  1.03298 1.07129 -9.92271
LeftToes  -1.9349e-011 -1.19469e-011 -2.02219e-012
2331
root  -31.467 38.8776 -46.2267 8.45728 -64.1083 -8.45996
RightUpLeg  -12.1723 -11.5813 -1.18861
RightLeg  21.5729 -8.53328 -0.578116
RightFoot  -8.55762 -0.225133 6.86068
RightToes  -1.11029e-010 1.2921e-014 -6.02303e-014
Spine  9.58318 1.72814 14.885
Spine1  -2.64972 4.28264 -4.41599
HEad  -7.35083 43.9375 -11.5923
LeftShoulder1  1.1271 0.5635 -32.2693
LeftArm  12.5322 12.5453 -29.4279
LeftForeArm  0.983926 -10.9017 -14.5708
LeftHand  0.247812 0.280823 -5.71811
RightShoulder  7.04792 8.95594 49.5578
RightArm  12.2041 1.15828 10.4302
RightForeArm  18.7738 1.57855 16.9562
RightHand  -0.211125 3.86201 -2.91194
LeftUpLeg  -15.0977 1.10376 8.21807
LeftLeg  55.5507 0.537577 1.3335
LeftFoot  -0.109039 0.741827 -7.53142
LeftToes  -1.9349e-011 -1.19469e-011 -2.02219e-012
2332
root  -32.4704 39.1205 -46.2314 6.28711 -62.0003 -6.07483
RightUpLeg  -9.12831 -10.7833 -2.14418
RightLeg  19.4515 -11.3368 -0.252854
RightFoot  -9.25457 -0.18631 6.76521
RightToes  -1.11029e-010 1.2921e-014 -6.02303e-014
Spine  9.45028 2.14267 14.5767
Spine1  -3.01508 4.6629 -5.55283
HEad  -7.16596 42.6614 -11.4506
LeftShoulder1  1.10916 0.609134 -32.253
LeftArm  11.7514 12.9307 -29.8355
LeftForeArm  2.05019 -10.9121 -14.4499
LeftHand  0.247703 0.0572842 -5.54456
RightShoulder  7.11539 9.09451 49.4815
RightArm  13.0411 1.1873 10.8062
RightForeArm  18.3048 1.83326 16.9812
RightHand  -0.206309 3.72867 -2.93861
LeftUpLeg  -17.6427 2.3647 6.42221
LeftLeg  52.622 0.379514 0.990584
LeftFoot  -1.87317 0.588177 -6.96223
LeftToes  -1.9349e-011 -1.19469e-011 -2.02219e-012
2333
root  -33.4498 39.3136 -46.1835 4.65118 -59.8379 -4.1593
RightUpLeg  -6.12255 -10.3632 -2.88051
RightLeg  17.0881 -13.9002 0.263789
RightFoot  -9.86434 -0.15482 6.79845
RightToes  -1.11029e-010 1.2921e-014 -6.02303e-014
Spine  9.21756 2.62341 14.1849
Spine1  -3.3923 5.04344 -6.56077
HEad  -6.83516 41.4017 -11.3557
LeftShoulder1  1.09237 0.660483 -32.3537
LeftArm  12.2313 13.2226 -30.1355
LeftForeArm  1.86554 -11.3395 -14.2098
LeftHand  0.245827 0.0287412 -5.40704
RightShoulder  7.05996 9.04896 49.2748
RightArm  13.9894 1.03578 11.1416
RightForeArm  17.5697 2.56009 16.8849
RightHand  -0.20723 3.74368 -2.89232
LeftUpLeg  -19.4924 4.05292 4.05775
LeftLeg  47.3342 -0.656839 -0.352766
LeftFoot  -3.42216 0.48323 -6.68076
LeftToes  -1.9349e-011 -1.19469e-011 -2.02219e-012
